<?xml version="1.0" encoding="utf-8"?>
<!-- Generator: Adobe Illustrator 23.0.3, SVG Export Plug-In . SVG Version: 6.00 Build 0)  -->
<svg version="1.1" id="Layer_1" xmlns="http://www.w3.org/2000/svg" xmlns:xlink="http://www.w3.org/1999/xlink" x="0px" y="0px"
	 viewBox="0 0 448 512" style="enable-background:new 0 0 448 512;" xml:space="preserve">
<style type="text/css">
	.st0{fill:#FFFFFF;}
</style>
<path class="st0" d="M425.4,330.9c-17-16.8-34.5-34.1-34.5-116.1c0-83-61-152.1-140.5-164.8c3.7-5.3,5.6-11.6,5.6-18.1
	c0-17.7-14.3-32-32-32s-32,14.3-32,32c0,6.5,1.9,12.8,5.6,18.1C118.1,62.8,57.1,131.8,57.1,214.9c0,81.9-17.6,99.3-34.5,116.1
	C-25.5,378.4,9.7,448,66.9,448H160c0,35.3,28.7,64,64,64s64-28.7,64-64h93.1C438.3,448,473.5,378.4,425.4,330.9z M224,472
	c-13.2,0-24-10.8-24-24h48C248,461.2,237.2,472,224,472z M381.1,400H66.9c-16.8,0-25.1-20.4-13.3-32.2c28.6-28.6,51.6-55.7,51.6-153
	C105.1,149.3,158.5,96,224,96s118.9,53.3,118.9,118.9c0,97.6,23.2,124.6,51.6,153C406.3,379.7,397.8,400,381.1,400L381.1,400z"/>
</svg>
