<?xml version="1.0" encoding="utf-8"?>
<!-- Generator: Adobe Illustrator 23.1.1, SVG Export Plug-In . SVG Version: 6.00 Build 0)  -->
<svg version="1.1" id="Layer_1" xmlns="http://www.w3.org/2000/svg" xmlns:xlink="http://www.w3.org/1999/xlink" x="0px" y="0px"
	 viewBox="0 0 11 24" style="enable-background:new 0 0 11 24;" xml:space="preserve">
<style type="text/css">
	.st0{fill:none;}
	.st1{fill:#FFFFFF;}
</style>
<path class="st0" d="M-7,0h24v24H-7V0z"/>
<path class="st1" d="M9.5,6v11.5c0,2.2-1.8,4-4,4s-4-1.8-4-4V5c0-1.4,1.1-2.5,2.5-2.5S6.5,3.6,6.5,5v10.5c0,0.5-0.4,1-1,1
	s-1-0.5-1-1V6H3v9.5C3,16.9,4.1,18,5.5,18S8,16.9,8,15.5V5c0-2.2-1.8-4-4-4S0,2.8,0,5v12.5c0,3,2.5,5.5,5.5,5.5s5.5-2.5,5.5-5.5V6
	H9.5z"/>
</svg>
