<svg xmlns="http://www.w3.org/2000/svg" viewBox="0 0 452.51 451.99"><defs><style>.cls-1{fill:#fff;}</style></defs><title>Asset 1</title><g id="Layer_2" data-name="Layer 2"><g id="Capa_1" data-name="Capa 1"><path class="cls-1" d="M262.8,452a41.72,41.72,0,0,1-30.71-12.93l-72.9-72.9a42.4,42.4,0,0,1-12.75-30.53V207.23L13.25,74C.08,61.47-3.54,43.76,3.59,26.56l.18-.42C11,9.53,25.51,0,43.53,0H409c18,0,32.52,9.53,39.77,26.13l.18.43c7.13,17.2,3.52,34.91-9.65,47.48L306.08,207.23V408.72c0,18-9.53,32.51-26.15,39.76l-1,.42A44.87,44.87,0,0,1,262.8,452ZM196.44,332.7l59.64,59.64V186.52L392.6,50H59.92L196.44,186.52Z"/></g></g></svg>