<?xml version="1.0" encoding="utf-8"?>
<!-- Generator: Adobe Illustrator 23.1.1, SVG Export Plug-In . SVG Version: 6.00 Build 0)  -->
<svg version="1.1" xmlns="http://www.w3.org/2000/svg" xmlns:xlink="http://www.w3.org/1999/xlink" x="0px" y="0px"
	 viewBox="0 0 127 123" style="enable-background:new 0 0 127 123;" xml:space="preserve">
<style type="text/css">
	.st0{fill:#FFFFFF;}
	.st1{fill:none;}
</style>
<g id="Layer_1">
</g>
<g id="Layer_2">
	<path class="st0" d="M88.22,12.34l24.53,24.53V12.34H88.22z M112.75,85.93l-24.53,24.53h24.53V85.93z M39.15,110.47L14.62,85.93
		v24.53H39.15z M14.62,36.87l24.53-24.53H14.62V36.87z M94.05,31.04c-16.74-16.74-43.98-16.74-60.72,0s-16.74,43.98,0,60.72
		s43.98,16.74,60.72,0S110.79,47.85,94.05,31.04z M87.3,85.01c-13.06,13.06-34.16,13.06-47.23,0s-13.06-34.16,0-47.23
		s34.16-13.06,47.23,0S100.36,71.95,87.3,85.01z"/>
	<path class="st1" d="M-9.91-12.2h147.2V135H-9.91L-9.91-12.2z"/>
</g>
</svg>
