<?xml version="1.0" encoding="utf-8"?>
<!-- Generator: Adobe Illustrator 23.1.1, SVG Export Plug-In . SVG Version: 6.00 Build 0)  -->
<svg version="1.1" id="Capa_1" xmlns="http://www.w3.org/2000/svg" xmlns:xlink="http://www.w3.org/1999/xlink" x="0px" y="0px"
	 viewBox="0 0 458.1 458.1" style="enable-background:new 0 0 458.1 458.1;" xml:space="preserve">
<style type="text/css">
	.st0{fill:#FFFFFF;}
</style>
<g>
	<path class="st0" d="M454.11,396.64L247.33,38.5c-3.78-6.56-10.77-10.59-18.34-10.59c-7.57,0-14.56,4.04-18.34,10.59L2.84,398.41
		c-3.78,6.55-3.78,14.63,0,21.18c3.78,6.56,10.78,10.59,18.34,10.59h415.61c0.04,0,0.09,0.01,0.12,0c11.71,0,21.18-9.48,21.18-21.18
		C458.1,404.38,456.61,400.12,454.11,396.64z M57.87,387.82L228.99,91.46L400.1,387.83L57.87,387.82L57.87,387.82z M218.05,163.01
		h21.98c1.8,0,3.53,0.73,4.8,2.02c1.26,1.3,1.94,3.04,1.89,4.85l-4.42,138.67c-0.1,3.64-3.07,6.54-6.7,6.54h-13.12
		c-3.63,0-6.61-2.9-6.7-6.54l-4.42-138.67c-0.05-1.81,0.64-3.55,1.9-4.85C214.52,163.74,216.25,163.01,218.05,163.01z M246.45,333.5
		v25.1c0,3.7-3,6.7-6.7,6.7h-21.39c-3.71,0-6.7-3-6.7-6.7v-25.1c0-3.7,2.99-6.7,6.7-6.7h21.39
		C243.45,326.79,246.45,329.8,246.45,333.5z"/>
</g>
</svg>
